<svg width="417" height="68" viewBox="0 0 417 68" fill="none" xmlns="http://www.w3.org/2000/svg">
<path d="M13.278 45.156H23.662V52H8.676C6.08 49.5613 4.11333 46.4737 2.776 42.737C1.43867 39.0003 0.77 35.1653 0.77 31.232C0.77 27.2593 1.51733 23.444 3.012 19.786C4.50667 16.128 6.729 13.0993 9.679 10.7H23.662V17.78H13.278C12.216 18.9993 11.2917 20.966 10.505 23.68C9.75767 26.394 9.384 28.99 9.384 31.468C9.384 33.946 9.75767 36.542 10.505 39.256C11.2917 41.97 12.216 43.9367 13.278 45.156ZM38.1972 45.156H43.1532C44.0185 44.212 44.6282 43.268 44.9822 42.324C45.3755 41.3407 45.5722 39.905 45.5722 38.017V10.7H53.6552V35.067C53.6552 37.073 53.5962 38.6463 53.4782 39.787C53.3995 40.8883 53.1635 42.2453 52.7702 43.858C52.1015 46.7293 50.2529 49.4433 47.2242 52H34.1262C31.0975 49.522 29.2489 46.808 28.5802 43.858C27.9902 41.4587 27.6952 38.5283 27.6952 35.067V10.7H35.7782V38.017C35.7782 39.905 35.9552 41.3407 36.3092 42.324C36.7025 43.268 37.3319 44.212 38.1972 45.156ZM59.0459 52V10.7H75.8609C77.7882 11.408 79.4992 12.647 80.9939 14.417C82.4885 16.187 83.2359 18.3307 83.2359 20.848C83.2359 25.2927 81.7805 28.4 78.8699 30.17V30.406C82.4885 32.412 84.2979 35.5587 84.2979 39.846C84.2979 44.7627 81.8002 48.814 76.8049 52H59.0459ZM67.0699 27.751H72.9109C74.6415 26.689 75.5069 25.0763 75.5069 22.913C75.5069 20.7497 74.7005 19.0387 73.0879 17.78H67.0699V27.751ZM67.0699 45.156H73.1469C73.8549 44.6447 74.4842 43.8383 75.0349 42.737C75.6249 41.6357 75.9199 40.5343 75.9199 39.433C75.9199 38.3317 75.6839 37.3287 75.2119 36.424C74.7399 35.5193 74.1499 34.8507 73.4419 34.418H67.0699V45.156ZM107.837 10.7C110.591 12.942 112.636 15.951 113.973 19.727C115.311 23.503 115.979 27.397 115.979 31.409C115.979 35.3817 115.33 39.1577 114.032 42.737C112.734 46.3163 110.669 49.404 107.837 52H95.6835C92.8515 49.404 90.7865 46.3163 89.4885 42.737C88.1905 39.1577 87.5415 35.3817 87.5415 31.409C87.5415 27.397 88.2102 23.503 89.5475 19.727C90.8848 15.951 92.9302 12.942 95.6835 10.7H107.837ZM99.6365 45.156H103.884C104.868 44.0153 105.694 42.1667 106.362 39.61C107.07 37.014 107.424 34.2803 107.424 31.409C107.424 28.5377 107.09 25.8433 106.421 23.326C105.753 20.7693 104.927 18.9207 103.943 17.78H99.6365C98.6532 18.9207 97.8075 20.7693 97.0995 23.326C96.4308 25.8433 96.0965 28.5377 96.0965 31.409C96.0965 34.2803 96.4308 37.014 97.0995 39.61C97.8075 42.1667 98.6532 44.0153 99.6365 45.156ZM123.493 10.7H137.653V17.78H126.325L126.148 18.134L135.588 35.362C137.515 38.8233 138.479 41.4587 138.479 43.268C138.479 47.2407 137.161 50.1513 134.526 52H118.891V45.156H131.104L131.281 44.802L120.661 25.745C119.127 22.9917 118.36 20.7497 118.36 19.019C118.36 14.9283 120.071 12.1553 123.493 10.7ZM152.04 52V10.7H160.123V52H152.04ZM184.219 52L173.186 29.167L172.891 29.285L173.245 36.247V52H165.811V10.7H171.77L182.626 34.418L182.921 34.3L182.272 27.043V10.7H189.706V52H184.219ZM202.035 17.78H193.126V10.7H218.968V17.78H210.059V52H202.035V17.78ZM222.391 52V10.7H243.572V17.78H230.474V27.633H242.156V34.477H230.474V45.156H243.808V52H222.391ZM267.388 52H254.88C252.048 49.404 249.983 46.3163 248.685 42.737C247.387 39.1577 246.738 35.421 246.738 31.527C246.738 27.5937 247.524 23.7193 249.098 19.904C250.671 16.0887 252.874 13.0207 255.706 10.7H270.043V17.78H259.069C258.046 18.96 257.161 20.8283 256.414 23.385C255.666 25.9023 255.293 28.5967 255.293 31.468C255.293 34.3 255.627 37.014 256.296 39.61C257.004 42.1667 257.869 44.0153 258.892 45.156H264.556V29.108H272.344V39.02C272.344 44.448 270.692 48.7747 267.388 52ZM276.954 10.7H292.648C295.126 11.526 297.23 13.06 298.961 15.302C300.731 17.5047 301.616 20.2187 301.616 23.444C301.616 28.7147 299.531 32.589 295.362 35.067L301.321 52H293.061L288.046 36.955H284.919V52H276.954V10.7ZM284.919 17.78V30.347H289.993C290.662 30.1897 291.389 29.521 292.176 28.341C293.002 27.1217 293.415 25.7057 293.415 24.093C293.415 22.4803 293.061 21.0643 292.353 19.845C291.684 18.6257 291.016 17.9373 290.347 17.78H284.919ZM323.46 52L322.221 45.451H312.899L311.66 52H303.636L311.601 10.7H323.814L331.366 52H323.46ZM317.442 18.37L315.141 32.117L313.843 39.138H321.218L319.861 32.117L317.56 18.37H317.442ZM344.61 59.788H343.135V55.54L344.669 52H341.07C338.474 49.5613 336.507 46.4737 335.17 42.737C333.832 39.0003 333.164 35.1653 333.164 31.232C333.164 27.2593 333.911 23.444 335.406 19.786C336.9 16.128 339.123 13.0993 342.073 10.7H356.056V17.78H345.672C344.61 18.9993 343.685 20.966 342.899 23.68C342.151 26.394 341.778 28.99 341.778 31.468C341.778 33.946 342.151 36.542 342.899 39.256C343.685 41.97 344.61 43.9367 345.672 45.156H356.056V52H349.684L348.327 55.54C348.917 56.0513 349.349 56.484 349.625 56.838C350.49 57.8607 350.923 59.1193 350.923 60.614C350.923 62.1087 350.569 63.4263 349.861 64.567C349.153 65.7077 348.248 66.632 347.147 67.34H341.955V62.561H344.61C344.964 62.325 345.141 61.8727 345.141 61.204C345.18 60.5353 345.003 60.0633 344.61 59.788ZM377.966 52L376.727 45.451H367.405L366.166 52H358.142L366.107 10.7H378.32L385.872 52H377.966ZM371.948 18.37L369.647 32.117L368.349 39.138H375.724L374.367 32.117L372.066 18.37H371.948ZM374.78 8.694L369.116 7.219C368.29 7.219 366.677 7.67133 364.278 8.576V2.381C366.795 1.319 368.486 0.787998 369.352 0.787998L375.075 2.381C375.861 2.381 377.415 2.10567 379.736 1.555V7.868C377.336 8.458 375.684 8.73333 374.78 8.694ZM407.965 10.7C410.719 12.942 412.764 15.951 414.101 19.727C415.439 23.503 416.107 27.397 416.107 31.409C416.107 35.3817 415.458 39.1577 414.16 42.737C412.862 46.3163 410.797 49.404 407.965 52H395.811C392.979 49.404 390.914 46.3163 389.616 42.737C388.318 39.1577 387.669 35.3817 387.669 31.409C387.669 27.397 388.338 23.503 389.675 19.727C391.013 15.951 393.058 12.942 395.811 10.7H407.965ZM399.764 45.156H404.012C404.996 44.0153 405.822 42.1667 406.49 39.61C407.198 37.014 407.552 34.2803 407.552 31.409C407.552 28.5377 407.218 25.8433 406.549 23.326C405.881 20.7693 405.055 18.9207 404.071 17.78H399.764C398.781 18.9207 397.935 20.7693 397.227 23.326C396.559 25.8433 396.224 28.5377 396.224 31.409C396.224 34.2803 396.559 37.014 397.227 39.61C397.935 42.1667 398.781 44.0153 399.764 45.156Z" fill="white"/>
</svg>
